<svg xmlns="http://www.w3.org/2000/svg" width="34" height="34" viewBox="0 0 34 34"><g transform="translate(2.833 2.833)"><path d="M26.917,12.75H1.417A1.418,1.418,0,0,1,0,11.333V1.417A1.418,1.418,0,0,1,1.417,0h25.5a1.418,1.418,0,0,1,1.417,1.417v9.917A1.418,1.418,0,0,1,26.917,12.75ZM4.25,7.084a1.417,1.417,0,1,0,0,2.833H24.083a1.417,1.417,0,1,0,0-2.833Z" transform="translate(0 0)" fill="#051d3f"/><path d="M12.008,12.051h0l-.84-.628A6.64,6.64,0,0,1,8.5,6.116a6.6,6.6,0,0,1,1.935-4.7l2.007,2A3.806,3.806,0,0,0,12.454,8.8a3.86,3.86,0,0,0,.408.353l.841.629L12.009,12.05Zm8.5-1.417h0l-.84-.628a6.678,6.678,0,0,1-.713-.615A6.648,6.648,0,0,1,18.935,0l2.008,2a3.812,3.812,0,0,0,.011,5.384,3.859,3.859,0,0,0,.408.353l.841.629-1.695,2.268Zm-17,0h0l-.839-.628A6.629,6.629,0,0,1,0,4.7,6.6,6.6,0,0,1,1.935,0L3.942,2a3.813,3.813,0,0,0,.011,5.384,3.859,3.859,0,0,0,.408.353l.841.629L3.508,10.634Z" transform="translate(2.727 16.001)" fill="#7c42ff"/></g></svg>