<?xml version="1.0" encoding="utf-8"?>
<svg width="37.5" height="33.333" viewBox="0 0 37.5 33.333" xmlns="http://www.w3.org/2000/svg">
  <g transform="matrix(0.8, 0, 0, 0.8, 3991.550049, 6213.867188)">
    <g transform="translate(-4984.75 -7763.167)">
      <path d="M33.334,25H4.166A4.171,4.171,0,0,1,0,20.833V4.166A4.171,4.171,0,0,1,4.166,0H33.334A4.171,4.171,0,0,1,37.5,4.166V20.833A4.171,4.171,0,0,1,33.334,25ZM18.75,4.166A8.333,8.333,0,1,0,27.082,12.5,8.343,8.343,0,0,0,18.75,4.166Z" transform="translate(0 8.333)" fill="#48465b"/>
      <path d="M10.417,0H2.083a2.083,2.083,0,0,0,0,4.167h8.333a2.083,2.083,0,1,0,0-4.167Z" transform="translate(12.5)" fill="#5c78ff"/>
      <path d="M4.167,8.333A4.167,4.167,0,1,0,0,4.167,4.166,4.166,0,0,0,4.167,8.333Z" transform="translate(14.583 16.667)" fill="#48465b"/>
    </g>
  </g>
</svg>