<svg xmlns="http://www.w3.org/2000/svg" width="39" height="39" viewBox="0 0 39 39"><g transform="translate(4989 7834.5)"><g transform="translate(-4989 -7834.5)"><g transform="translate(4.875 4.875)"><path d="M27.625,13H19.5V9.75A9.762,9.762,0,0,1,29.25,0V11.375A1.627,1.627,0,0,1,27.625,13ZM9.75,13H1.625A1.627,1.627,0,0,1,0,11.375V0A9.762,9.762,0,0,1,9.75,9.75V13Z" transform="translate(0 16.25)" fill="#48465b"/><path d="M29.25,16.25h0a13.015,13.015,0,0,1-13-13V0H27.625A1.627,1.627,0,0,1,29.25,1.625V16.25ZM0,16.25H0V1.625A1.627,1.627,0,0,1,1.625,0H13V3.25A13.015,13.015,0,0,1,0,16.25Z" transform="translate(0)" fill="#5c78ff"/></g></g></g></svg>