<?xml version="1.0" encoding="utf-8"?>
<svg width="46" height="38.5" viewBox="0 0 46 38.5" xmlns="http://www.w3.org/2000/svg">
  <g transform="matrix(0.831169, 0, 0, 0.831169, 4220.611816, 6673.669922)">
    <g transform="translate(28 -95.5)">
      <g transform="translate(-5105 -7925.5)">
        <g transform="translate(7.5 3)">
          <path d="M3,2.842V27H0V0H9V2.842Z" transform="translate(0 1.154)" fill="#5c78ff"/>
          <path d="M1.5,29.306A1.5,1.5,0,0,1,.024,28.073,1.476,1.476,0,0,1,0,27.806V1.5A1.5,1.5,0,0,1,1.5,0a1.476,1.476,0,0,1,.267.024l12,2.173A1.5,1.5,0,0,1,15,3.675V25.631a1.5,1.5,0,0,1-1.233,1.476l-12,2.175A1.515,1.515,0,0,1,1.5,29.306ZM4.375,11.935A1.964,1.964,0,0,0,2.5,13.974a1.964,1.964,0,0,0,1.875,2.039A1.964,1.964,0,0,0,6.25,13.974,1.964,1.964,0,0,0,4.375,11.935Z" transform="translate(6 0)" fill="#48465b"/>
        </g>
      </g>
    </g>
    <g transform="translate(-5051 -8023.5)">
      <g transform="translate(0 0)">
        <path d="M2,0,0,6.5l6.5-2Z" transform="translate(0 13)" fill="#5c78ff"/>
        <path d="M9.5,19A9.5,9.5,0,1,1,19,9.5,9.511,9.511,0,0,1,9.5,19Zm0-14A2.5,2.5,0,0,0,7,7.5V8H7A1,1,0,0,0,6,9v3a1,1,0,0,0,1,1h5a1,1,0,0,0,1-1V9a1,1,0,0,0-1-1V7.5A2.5,2.5,0,0,0,9.5,5ZM11,8H8V7.5a1.5,1.5,0,0,1,3,0V8Z" transform="translate(1)" fill="#48465b"/>
      </g>
    </g>
  </g>
</svg>