<?xml version="1.0" encoding="utf-8"?>
<svg width="46" height="41" viewBox="0 0 46 41" xmlns="http://www.w3.org/2000/svg">
  <g transform="matrix(0.909091, 0, 0, 0.909091, 4706.864258, 7248.089355)">
    <g transform="translate(-74 -38.5)">
      <g transform="translate(-5105 -7925.5)">
        <g transform="translate(7.5 3)">
          <path d="M3,2.842V27H0V0H9V2.842Z" transform="translate(0 1.154)" fill="#5c78ff"/>
          <path d="M1.5,29.306A1.5,1.5,0,0,1,.024,28.073,1.476,1.476,0,0,1,0,27.806V1.5A1.5,1.5,0,0,1,1.5,0a1.476,1.476,0,0,1,.267.024l12,2.173A1.5,1.5,0,0,1,15,3.675V25.631a1.5,1.5,0,0,1-1.233,1.476l-12,2.175A1.515,1.515,0,0,1,1.5,29.306ZM4.375,11.935A1.964,1.964,0,0,0,2.5,13.974a1.964,1.964,0,0,0,1.875,2.039A1.964,1.964,0,0,0,6.25,13.974,1.964,1.964,0,0,0,4.375,11.935Z" transform="translate(6 0)" fill="#48465b"/>
        </g>
      </g>
    </g>
    <g transform="translate(680 162.5)">
      <path d="M2,0,0,6.5l6.5-2Z" transform="translate(-5833 -8118.5)" fill="#5c78ff"/>
      <path d="M10,0A10,10,0,1,1,0,10,10,10,0,0,1,10,0Z" transform="translate(-5833 -8131.5)" fill="#48465b"/>
      <g transform="translate(-0.6 -33.5)">
        <g transform="translate(-5828.7 -8092.9)">
          <path d="M6.7,10.36a.6.6,0,0,1-.353-.113L2.232,7.313H.61A.61.61,0,0,1,0,6.7V3.656a.61.61,0,0,1,.61-.609H2.232L6.35.114A.6.6,0,0,1,6.7,0a.611.611,0,0,1,.61.61V9.75a.61.61,0,0,1-.61.61ZM6.094,1.792,3.351,3.746V6.614L6.094,8.568V1.792ZM1.219,4.266V6.094h.914V4.266H1.219Z" transform="translate(0 0)" fill="#f6f7fb"/>
          <path d="M1.038.177a.609.609,0,1,0-.858.866A1.721,1.721,0,0,1,.7,2.272,1.723,1.723,0,0,1,.18,3.5a.609.609,0,1,0,.858.865,2.933,2.933,0,0,0,.878-2.1A2.932,2.932,0,0,0,1.038.177Z" transform="translate(8.531 2.908)" fill="#f6f7fb"/>
          <path d="M1.036.174a.609.609,0,1,0-.853.87,3.726,3.726,0,0,1,1.13,2.678A3.726,3.726,0,0,1,.183,6.4a.609.609,0,0,0,.853.87,4.936,4.936,0,0,0,1.5-3.548A4.936,4.936,0,0,0,1.036.174Z" transform="translate(10.005 1.458)" fill="#f6f7fb"/>
        </g>
      </g>
    </g>
  </g>
</svg>