<?xml version="1.0" encoding="utf-8"?>
<svg width="27" height="30" viewBox="0 0 27 30" xmlns="http://www.w3.org/2000/svg">
  <g transform="matrix(0.814815, 0, 0, 0.814815, 4057.427002, 6679.779297)">
    <g transform="translate(-4968 -8169) rotate(-90)">
      <g transform="translate(1.475 0.983)">
        <path d="M0,3.442V2.458H7.129a.738.738,0,0,0,.737-.737V1.475a.492.492,0,0,0-.983,0v.492H5.9V1.475a1.475,1.475,0,0,1,2.95,0v.246A1.721,1.721,0,0,1,7.129,3.442Z" transform="translate(0 1.967)" fill="#48465b"/>
        <path d="M3.442,9.833A1.477,1.477,0,0,1,1.966,8.358V7.867H2.95v.492a.492.492,0,1,0,.983,0V8.112A.738.738,0,0,0,3.2,7.375H0V6.391H3.2A1.723,1.723,0,0,1,4.917,8.112v.246A1.476,1.476,0,0,1,3.442,9.833ZM3.2,3.442H0V2.458H3.2a.738.738,0,0,0,.738-.738V1.475a.492.492,0,1,0-.983,0v.492H1.966V1.475a1.475,1.475,0,0,1,2.95,0v.246A1.723,1.723,0,0,1,3.2,3.442Z" transform="translate(0)" fill="#5c78ff"/>
      </g>
    </g>
    <g transform="translate(-4976.5 -8194.5)">
      <path d="M22.5,30H4.5A4.4,4.4,0,0,1,0,25.715V4.286A4.4,4.4,0,0,1,4.5,0h18A4.4,4.4,0,0,1,27,4.286V25.715A4.4,4.4,0,0,1,22.5,30Zm-9-19.285a8.8,8.8,0,0,0-9,8.571,8.8,8.8,0,0,0,9,8.571,8.8,8.8,0,0,0,9-8.571A8.8,8.8,0,0,0,13.5,10.715Zm-9-7.858A1.468,1.468,0,0,0,3,4.286V8.571H24V4.286a1.468,1.468,0,0,0-1.5-1.43Zm6,4.286A1.467,1.467,0,0,1,9,5.715a1.5,1.5,0,0,1,3,0A1.467,1.467,0,0,1,10.5,7.143Zm-4.5,0A1.467,1.467,0,0,1,4.5,5.715,1.467,1.467,0,0,1,6,4.286,1.468,1.468,0,0,1,7.5,5.715,1.468,1.468,0,0,1,6,7.143Z" fill="#48465b"/>
    </g>
  </g>
</svg>