<svg xmlns="http://www.w3.org/2000/svg" width="33.167" height="33.167" viewBox="0 0 33.167 33.167"><g transform="translate(130 -380.5)"><g transform="translate(-130 380.5)"><g transform="translate(1.382 4.146)"><path d="M16.563,11.44c-1.642,2.818-6.562,3.051-10.987.52S-1.106,5.093.536,2.276,7.1-.775,11.524,1.756,18.206,8.622,16.563,11.44Z" transform="translate(13.219 10.681)" fill="#5c78ff"/><path d="M5.948,0C2.663,0,0,4.1,0,9.164s2.663,9.164,5.948,9.164,5.948-4.1,5.948-9.164S9.234,0,5.948,0Z" transform="translate(9.459 0)" fill="#5c78ff"/><path d="M.536,11.44c-1.643-2.818.613-7.154,5.039-9.684s9.345-2.3,10.988.52-.613,7.154-5.039,9.684S2.179,14.258.536,11.44Z" transform="translate(0 10.681)" fill="#5c78ff"/></g></g></g></svg>