<?xml version="1.0" encoding="utf-8"?>
<svg width="28" height="24.267" viewBox="0 0 28 24.267" xmlns="http://www.w3.org/2000/svg">
  <g transform="matrix(0.857018, 0, 0, 0.857018, 2.001732, 1.734872)">
    <path d="M25.2,24.267H2.8A2.927,2.927,0,0,1,0,21.234V3.033A2.927,2.927,0,0,1,2.8,0H25.2A2.927,2.927,0,0,1,28,3.033v18.2A2.927,2.927,0,0,1,25.2,24.267ZM22.4,9.1a2.927,2.927,0,0,0-2.8,3.033,2.927,2.927,0,0,0,2.8,3.033,2.927,2.927,0,0,0,2.8-3.033A2.927,2.927,0,0,0,22.4,9.1Z" transform="translate(0)" fill="#48465b"/>
  </g>
</svg>