<svg xmlns="http://www.w3.org/2000/svg" width="42.5" height="42.5" viewBox="0 0 42.5 42.5"><g transform="translate(5083 7694.5)"><g transform="translate(-5083 -7694.5)"><g transform="translate(8.854 7.083)"><path d="M12.4,30.1A12.41,12.41,0,0,1,0,17.708c0-2.271,1.043-4.912,3.1-7.85A58.41,58.41,0,0,1,12.4,0a58.443,58.443,0,0,1,9.3,9.858c2.057,2.938,3.1,5.579,3.1,7.85A12.41,12.41,0,0,1,12.4,30.1Zm0-25.325h0C6.6,10.228,3.541,14.7,3.541,17.708a8.854,8.854,0,1,0,17.708,0c0-3.009-3.061-7.48-8.853-12.929Z" transform="translate(0 0)" fill="#48465b"/><path d="M0,0Q12.4,10.861,12.4,17.708A12.4,12.4,0,0,1,0,30.1Z" transform="translate(12.396)" fill="#48465b"/></g></g></g></svg>