<svg xmlns="http://www.w3.org/2000/svg" width="38.5" height="38.5" viewBox="0 0 38.5 38.5"><g transform="translate(5009 7626.5)"><g transform="translate(-5009 -7626.5)"><g transform="translate(4.813 6.417)"><path d="M25.667,0H3.208A3.208,3.208,0,0,0,0,3.208V8.021a3.208,3.208,0,0,0,3.208,3.208H25.667a3.208,3.208,0,0,0,3.208-3.208V3.208A3.208,3.208,0,0,0,25.667,0Z" transform="translate(0 16.042)" fill="#051d3f"/><path d="M19.763,12.548h0A8.022,8.022,0,0,0,7.393,12.53l-2.47-2.049a11.229,11.229,0,0,1,17.315.025l-2.473,2.04Zm4.923-4.116h0a14.439,14.439,0,0,0-22.22-.012L0,6.367a17.647,17.647,0,0,1,27.155.016L24.688,8.43Z" transform="translate(0.867 0)" fill="#7c42ff"/></g></g></g></svg>