<?xml version="1.0" encoding="utf-8"?>
<svg width="33.5" height="23.629" viewBox="0 0 33.5 23.629" xmlns="http://www.w3.org/2000/svg">
  <g transform="matrix(0.776052, 0, 0, 0.776052, 3698.533447, 5802.470703)">
    <path d="M1.776,15.066,0,12.912A6.961,6.961,0,0,0,2.543,7.524,6.961,6.961,0,0,0,.015,2.149L1.8,0A9.751,9.751,0,0,1,5.334,7.524,9.752,9.752,0,0,1,1.776,15.066Z" transform="translate(-4738.417 -7469.216)" fill="#5c78ff"/>
    <path d="M1.783,23.629,0,21.48a12.531,12.531,0,0,0,4.545-9.672A12.531,12.531,0,0,0,.011,2.146L1.8,0a15.322,15.322,0,0,1,5.54,11.808A15.323,15.323,0,0,1,1.783,23.629Z" transform="translate(-4734.837 -7473.5)" fill="#5c78ff"/>
    <path d="M3.558,15.066A9.771,9.771,0,0,1,3.537,0L5.319,2.149a6.98,6.98,0,0,0,.015,10.763Z" transform="translate(-4755.417 -7469.216)" fill="#5c78ff"/>
    <path d="M5.554,23.629A15.355,15.355,0,0,1,5.54,0L7.325,2.146A12.563,12.563,0,0,0,7.337,21.48Z" transform="translate(-4761 -7473.5)" fill="#5c78ff"/>
    <g transform="translate(-4751.248 -7470.01)">
      <g transform="translate(0 0)">
        <path d="M124.056,91.345h-2.032L120.6,89.926l0-.006a2.091,2.091,0,1,0-2.04-.782h-2.6a1.042,1.042,0,0,0-.737.305l-2.059,2.06a1.042,1.042,0,1,0,1.474,1.474l1.754-1.754h1.5l-1.481,5.757-1.925-.719a1.042,1.042,0,0,0-.729,1.953l3.022,1.128a1.042,1.042,0,0,0,1.377-.728l.447-1.817,4.091,4.091a1.042,1.042,0,0,0,1.474-1.474l-4.927-4.927.558-2.408,1.045,1.045a1.042,1.042,0,0,0,.737.305h2.464a1.042,1.042,0,0,0,0-2.084Z" transform="translate(-112.868 -85.775)" fill="#48465b"/>
      </g>
    </g>
  </g>
</svg>