<svg xmlns="http://www.w3.org/2000/svg" width="38.333" height="38.333" viewBox="0 0 38.333 38.333"><g transform="translate(4816 7451.5)"><g transform="translate(-4816 -7451.5)"><g transform="translate(7.986 3.194)"><path d="M3.194,0H19.167a3.194,3.194,0,0,1,3.194,3.194V28.75a3.194,3.194,0,0,1-3.194,3.194H3.194A3.194,3.194,0,0,1,0,28.75V3.194A3.194,3.194,0,0,1,3.194,0Z" fill="#48465b"/><path d="M3.194,6.389A3.194,3.194,0,1,0,0,3.194,3.194,3.194,0,0,0,3.194,6.389Z" transform="translate(7.986 17.57)" fill="#5c78ff"/></g></g></g></svg>