<svg xmlns="http://www.w3.org/2000/svg" width="31.25" height="31.25" viewBox="0 0 31.25 31.25"><g transform="translate(7194 7621.5)"><g transform="translate(-7194 -7621.5)"><g transform="translate(2.604 5.208)"><path d="M9.765,22.136H1.954A1.956,1.956,0,0,1,0,20.182V1.954A1.956,1.956,0,0,1,1.954,0H9.765a1.956,1.956,0,0,1,1.954,1.954V20.182A1.956,1.956,0,0,1,9.765,22.136ZM2.6,7.813a1.3,1.3,0,0,0-1.3,1.3v2.6a1.3,1.3,0,0,0,2.6,0v-2.6A1.3,1.3,0,0,0,2.6,7.813Z" transform="translate(14.323)" fill="#48465b"/><path d="M9.765,22.136H1.954A1.956,1.956,0,0,1,0,20.182V1.954A1.956,1.956,0,0,1,1.954,0H9.765a1.956,1.956,0,0,1,1.954,1.954V20.182A1.956,1.956,0,0,1,9.765,22.136ZM9.115,7.813a1.3,1.3,0,0,0-1.3,1.3v2.6a1.3,1.3,0,0,0,2.6,0v-2.6A1.3,1.3,0,0,0,9.115,7.813Z" fill="#5c78ff"/></g></g></g></svg>