<svg xmlns="http://www.w3.org/2000/svg" width="34.5" height="34.5" viewBox="0 0 34.5 34.5"><g transform="translate(5060 8191.5)"><g transform="translate(-5060 -8191.5)"><path d="M18.687,31.624H1.437A1.439,1.439,0,0,1,0,30.187V12.938H2.875v8.625a1.437,1.437,0,1,0,2.875,0V12.938H20.126v17.25A1.44,1.44,0,0,1,18.687,31.624ZM2.875,10.064H0V1.437A1.439,1.439,0,0,1,1.437,0h17.25a1.44,1.44,0,0,1,1.439,1.437v8.624H5.749V5.749a1.437,1.437,0,0,0-2.875,0v4.313Z" transform="translate(7.188 1.438)" fill="#48465b"/></g></g></svg>