<svg xmlns="http://www.w3.org/2000/svg" width="39" height="39" viewBox="0 0 39 39"><g transform="translate(7434 7573.5)"><g transform="translate(-7434 -7573.5)"><g transform="translate(4.875 6.5)"><path d="M6.316,2.763Q5.921,6.711,3.947,6.988S5.132,2.369,3.552,0A14.713,14.713,0,0,1,1.693,5.584C.9,7.011,0,7.973,0,9.869c0,2.707,2.772,4.106,4.742,4.106s4.732-.947,4.732-4.264Q9.474,7.667,6.316,2.763Z" transform="translate(9.888 9.75)" fill="#48465b"/><path d="M22.75,26V13A8.125,8.125,0,0,0,6.5,13V26H3.25A3.25,3.25,0,0,1,0,22.75V3.25A3.25,3.25,0,0,1,3.25,0H26a3.25,3.25,0,0,1,3.25,3.25v19.5A3.25,3.25,0,0,1,26,26Z" fill="#5c78ff"/></g></g></g></svg>