<svg xmlns="http://www.w3.org/2000/svg" width="39.25" height="39.25" viewBox="0 0 39.25 39.25"><g transform="translate(3.271 8.177)"><path d="M28.619,21.26H4.089A3.85,3.85,0,0,1,0,17.717V3.544A3.85,3.85,0,0,1,4.089,0h24.53a3.85,3.85,0,0,1,4.089,3.544V17.717A3.85,3.85,0,0,1,28.619,21.26ZM3.271,3.271V17.989H29.438V3.271Z" transform="translate(0 0)" fill="#48465b"/><path d="M0,0V14.719H26.167V0Z" transform="translate(3.271 3.271)" fill="#5c78ff"/><path d="M15.536,0H.818a.818.818,0,0,0,0,1.635H15.536a.818.818,0,0,0,0-1.635Z" transform="translate(8.177 22.896)" fill="#5c78ff"/></g></svg>