<svg xmlns="http://www.w3.org/2000/svg" width="36" height="36" viewBox="0 0 36 36"><g transform="translate(5069 8073.5)"><g transform="translate(-5069 -8073.5)"><g transform="translate(4.5 3)"><path d="M22.5,30H4.5A4.4,4.4,0,0,1,0,25.715V4.286A4.4,4.4,0,0,1,4.5,0h18A4.4,4.4,0,0,1,27,4.286V25.715A4.4,4.4,0,0,1,22.5,30Zm-9-19.285a8.8,8.8,0,0,0-9,8.571,8.8,8.8,0,0,0,9,8.571,8.8,8.8,0,0,0,9-8.571A8.8,8.8,0,0,0,13.5,10.715Zm-9-7.858A1.468,1.468,0,0,0,3,4.286V8.571H24V4.286a1.468,1.468,0,0,0-1.5-1.43Zm6,4.286A1.467,1.467,0,0,1,9,5.715a1.5,1.5,0,0,1,3,0A1.467,1.467,0,0,1,10.5,7.143Zm-4.5,0A1.467,1.467,0,0,1,4.5,5.715,1.467,1.467,0,0,1,6,4.286,1.468,1.468,0,0,1,7.5,5.715,1.468,1.468,0,0,1,6,7.143Z" fill="#48465b"/><path d="M6,11.429a5.863,5.863,0,0,0,6-5.714A5.863,5.863,0,0,0,6,0,5.863,5.863,0,0,0,0,5.714,5.863,5.863,0,0,0,6,11.429Z" transform="translate(7.5 13.571)" fill="#5c78ff"/></g></g></g></svg>