<svg xmlns="http://www.w3.org/2000/svg" width="37" height="37" viewBox="0 0 37 37"><g transform="translate(5006 7528.5)"><g transform="translate(-5006 -7528.5)"><g transform="translate(6.167 3.083)"><path d="M6.167,0a6.167,6.167,0,0,1,6.167,6.167H0A6.167,6.167,0,0,1,6.167,0Z" transform="translate(0 24.667)" fill="#5c78ff"/><path d="M3.083,7.708A3.082,3.082,0,0,0,6.167,4.625q0-1.7-3.083-4.625Q0,2.923,0,4.625A3.082,3.082,0,0,0,3.083,7.708Z" transform="translate(18.5 15.417)" fill="#5c78ff"/><path d="M6.166,27.75A6.168,6.168,0,0,1,4.625,15.611V9.25a9.25,9.25,0,0,1,18.5,0v1.542H20.041V9.25a6.166,6.166,0,1,0-12.332,0v6.36A6.168,6.168,0,0,1,6.166,27.75Zm0-9.25A3.084,3.084,0,1,0,9.25,21.584,3.087,3.087,0,0,0,6.166,18.5Z" transform="translate(0)" fill="#48465b"/></g></g></g></svg>