<svg xmlns="http://www.w3.org/2000/svg" width="36.694" height="31.017" viewBox="0 0 36.694 31.017"><g transform="translate(4686.431 7950)"><path d="M2.271,19.263,0,16.509A8.9,8.9,0,0,0,3.251,9.62,8.9,8.9,0,0,0,.019,2.747L2.3,0A12.468,12.468,0,0,1,6.82,9.62,12.469,12.469,0,0,1,2.271,19.263Z" transform="translate(-4663.695 -7943.717)" fill="#5c78ff"/><path d="M2.28,30.212,0,27.465A16.023,16.023,0,0,0,5.811,15.1,16.022,16.022,0,0,0,.015,2.744L2.3,0A19.591,19.591,0,0,1,9.381,15.1,19.593,19.593,0,0,1,2.28,30.212Z" transform="translate(-4659.117 -7949.195)" fill="#5c78ff"/><path d="M4.549,19.263A12.494,12.494,0,0,1,4.522,0L6.8,2.747A8.924,8.924,0,0,0,6.82,16.509Z" transform="translate(-4679.292 -7943.717)" fill="#5c78ff"/><path d="M7.1,30.212A19.633,19.633,0,0,1,7.083,0L9.366,2.744a16.064,16.064,0,0,0,.015,24.721Z" transform="translate(-4686.431 -7949.195)" fill="#5c78ff"/><text transform="translate(-4668 -7929)" fill="#48465b" stroke="rgba(0,0,0,0)" stroke-width="1" font-size="21" font-family="SFProText-Bold, SF Pro Text" font-weight="700"><tspan x="-5.947" y="0">z</tspan></text></g></svg>