<svg xmlns="http://www.w3.org/2000/svg" width="20" height="20" viewBox="0 0 20 20"><g transform="translate(1.667 4.167)"><path d="M1.458,2.917H0C0,.9,1.633,0,3.646,0h7.292c2.013,0,3.646.9,3.646,2.917H13.125c0-1.208-.979-1.458-2.187-1.458H3.646C2.438,1.458,1.458,1.709,1.458,2.917Z" transform="translate(0.729 8.75)" fill="#fbfaff"/><path d="M7.292,5.1H5.833V4.375A.729.729,0,0,0,5.1,3.646H2.188a.729.729,0,0,0-.729.729V5.1H.729A.729.729,0,0,1,0,4.375V1.458A1.458,1.458,0,0,1,1.458,0H11.667a1.458,1.458,0,0,1,1.458,1.458V4.375A.729.729,0,0,1,12.4,5.1h-.729V4.375a.729.729,0,0,0-.729-.729H8.021a.729.729,0,0,0-.729.729Z" transform="translate(1.458)" fill="#fbfaff"/><path d="M15.313,0H.729A.729.729,0,0,0,0,.729V3.646a.729.729,0,0,0,.729.729H15.313a.729.729,0,0,0,.729-.729V.729A.729.729,0,0,0,15.313,0Z" transform="translate(0 5.833)" fill="#fbfaff"/></g></svg>