<svg xmlns="http://www.w3.org/2000/svg" width="20" height="20" viewBox="0 0 20 20"><g transform="translate(1 2.778)"><path d="M1.5,4H0C0,1.239,1.679,0,3.75,0h4.5C10.321,0,12,1.239,12,4H10.5c0-1.657-1.007-2-2.25-2H3.75C2.507,2,1.5,2.343,1.5,4Z" transform="translate(3 11)" fill="#fbfaff"/><path d="M18,3H16.506A1.846,1.846,0,0,0,14.87,5V7a.923.923,0,0,1-.818,1H3.985a.922.922,0,0,1-.818-1V5A1.846,1.846,0,0,0,1.53,3H0A2.769,2.769,0,0,1,2.455,0H15.545A2.769,2.769,0,0,1,18,3Z" fill="#fbfaff"/><path d="M18,0V5a2.769,2.769,0,0,1-2.455,3H2.455A2.769,2.769,0,0,1,0,5V0H1.53V2A2.769,2.769,0,0,0,3.985,5H14.051a2.769,2.769,0,0,0,2.455-3V0Z" transform="translate(0 5)" fill="#fbfaff"/></g></svg>