<svg xmlns="http://www.w3.org/2000/svg" width="24" height="24" viewBox="0 0 24 24"><g transform="translate(3 5)"><path d="M7.051,7.619a4.008,4.008,0,0,0,.291-1.49,4.066,4.066,0,0,0-5.576-3.8L0,.572A9.567,9.567,0,0,1,3.256,0a9.668,9.668,0,0,1,8.991,6.128,9.711,9.711,0,0,1-2.806,3.881ZM3.121,3.689l.135-.013A2.453,2.453,0,0,1,5.707,6.127l-.013.135Z" transform="translate(5.731 1.228)" fill="#a1afc3"/><path d="M15.3,15.523h0l-2.382-2.385-.346-.347a9.643,9.643,0,0,1-9.078-1.029A9.674,9.674,0,0,1,0,7.353,9.676,9.676,0,0,1,3.052,3.276L2.68,2.9.817,1.041,1.859,0,16.34,14.485,15.3,15.522ZM5.335,5.556a4.038,4.038,0,0,0-.433,1.8,4.09,4.09,0,0,0,4.085,4.085,4,4,0,0,0,1.793-.433L9.518,9.743a2.554,2.554,0,0,1-.531.061A2.454,2.454,0,0,1,6.536,7.353,2.561,2.561,0,0,1,6.6,6.818Z" transform="translate(0 0.002)" fill="#a1afc3"/></g></svg>