<svg xmlns="http://www.w3.org/2000/svg" width="24" height="24" viewBox="0 0 24 24"><g transform="translate(3 6)"><path d="M2.451,0A2.451,2.451,0,1,0,4.9,2.451,2.453,2.453,0,0,0,2.451,0Z" transform="translate(6.536 3.702)" fill="#a1afc3"/><path d="M8.987,12.255a9.586,9.586,0,0,1-5.5-1.719A9.672,9.672,0,0,1,0,6.128a9.655,9.655,0,0,1,17.975,0,9.673,9.673,0,0,1-3.491,4.409A9.586,9.586,0,0,1,8.987,12.255Zm0-10.213a4.085,4.085,0,1,0,4.085,4.086A4.09,4.09,0,0,0,8.987,2.042Z" transform="translate(0 0.026)" fill="#a1afc3"/></g></svg>