<svg xmlns="http://www.w3.org/2000/svg" width="24" height="24" viewBox="0 0 24 24"><path d="M10,20A10,10,0,1,1,20,10,10.011,10.011,0,0,1,10,20ZM7.273,11.332h0a1.454,1.454,0,0,0-1.035.429L4.727,13.272a.487.487,0,0,0-.121.2.5.5,0,0,0,.316.632l1.354.452a3.62,3.62,0,0,0,3.7-.874l4-4A2.922,2.922,0,0,0,14.525,6.3l-.632-1.265a.512.512,0,0,0-.095-.13.5.5,0,0,0-.707,0L11.5,6.5a1.46,1.46,0,0,0-.275,1.688,1.461,1.461,0,0,1-.274,1.688L9.614,11.213a1.45,1.45,0,0,1-1.034.428,1.468,1.468,0,0,1-.654-.155,1.473,1.473,0,0,0-.654-.154Z" transform="translate(2 2)" fill="#a1afc3"/></svg>