<svg xmlns="http://www.w3.org/2000/svg" width="16" height="20.286" viewBox="0 0 16 20.286"><path d="M0,1.465,7.631.034a2.034,2.034,0,0,1,.738,0L16,1.465v9.283a8.51,8.51,0,0,1-4,7.217L8.53,20.134a1,1,0,0,1-1.06,0L4,17.965a8.51,8.51,0,0,1-4-7.217Z" transform="translate(0 0)" fill="#a1afc3"/><path d="M2,4A2,2,0,1,1,4,2,2,2,0,0,1,2,4Z" transform="translate(6 4.465)" fill="#fff"/><path d="M0,4.5A4.649,4.649,0,0,1,4.991,0C7.651,0,9.836,1.433,10,4.5a.417.417,0,0,1-.418.5H.4C.265,5-.011,4.662,0,4.5Z" transform="translate(3 9)" fill="#fff"/></svg>