<svg xmlns="http://www.w3.org/2000/svg" width="19.25" height="14" viewBox="0 0 19.25 14"><path d="M1.75,3.5H0C0,1.084,1.959,0,4.375,0h8.75C15.541,0,17.5,1.084,17.5,3.5H15.75c0-1.45-1.175-1.75-2.625-1.75H4.375C2.925,1.75,1.75,2.05,1.75,3.5Z" transform="translate(0.875 10.5)" fill="#a1afc3"/><path d="M8.75,6.125H7V5.25a.875.875,0,0,0-.875-.875h-3.5a.875.875,0,0,0-.875.875v.875H.875A.875.875,0,0,1,0,5.25V1.75A1.75,1.75,0,0,1,1.75,0H14a1.75,1.75,0,0,1,1.75,1.75v3.5a.875.875,0,0,1-.875.875H14V5.25a.875.875,0,0,0-.875-.875h-3.5a.875.875,0,0,0-.875.875Z" transform="translate(1.75)" fill="#a1afc3"/><path d="M18.375,0H.875A.875.875,0,0,0,0,.875v3.5a.875.875,0,0,0,.875.875h17.5a.875.875,0,0,0,.875-.875V.875A.875.875,0,0,0,18.375,0Z" transform="translate(0 7)" fill="#a1afc3"/></svg>