<svg xmlns="http://www.w3.org/2000/svg" width="24" height="24" viewBox="0 0 24 24"><g transform="translate(4)"><path d="M4,0V.5A1.5,1.5,0,0,0,5.5,2h5A1.5,1.5,0,0,0,12,.5V0h2a2,2,0,0,1,2,2V18a2,2,0,0,1-2,2H2a2,2,0,0,1-2-2V2A2,2,0,0,1,2,0Z" transform="translate(0 2)" fill="#5c78ff"/><path d="M2,1A1,1,0,0,1,4,1H5.5a.5.5,0,0,1,.5.5v1a.5.5,0,0,1-.5.5H.5A.5.5,0,0,1,0,2.5v-1A.5.5,0,0,1,.5,1Z" transform="translate(5)" fill="#48465b"/><path d="M6,0H1A1,1,0,0,0,1,2H6A1,1,0,0,0,6,0Z" transform="translate(6 8)" fill="#5c78ff"/><path d="M2,1A1,1,0,1,0,1,2,1,1,0,0,0,2,1Z" transform="translate(3 8)" fill="#5c78ff"/><path d="M2,1A1,1,0,1,0,1,2,1,1,0,0,0,2,1Z" transform="translate(3 12)" fill="#5c78ff"/><path d="M6,0H1A1,1,0,0,0,1,2H6A1,1,0,0,0,6,0Z" transform="translate(6 12)" fill="#5c78ff"/><path d="M2,1A1,1,0,1,0,1,2,1,1,0,0,0,2,1Z" transform="translate(3 16)" fill="#5c78ff"/><path d="M6,0H1A1,1,0,0,0,1,2H6A1,1,0,0,0,6,0Z" transform="translate(6 16)" fill="#5c78ff"/></g></svg>