<svg xmlns="http://www.w3.org/2000/svg" width="24" height="24" viewBox="0 0 24 24"><g transform="translate(2 3)"><path d="M19.025,17.586a1,1,0,0,1-.707-.293L16.025,15H10.984A7.5,7.5,0,0,0,0,8.865V3A3,3,0,0,1,3,0H17a3,3,0,0,1,3,3v9.01l.025-.01v4.586A1,1,0,0,1,19.025,17.586ZM4,4A1,1,0,0,0,4,6h9a1,1,0,1,0,0-2Z" transform="translate(0 0)" fill="#48465b"/><path d="M1,7A1,1,0,1,1,2,6,1,1,0,0,1,1,7ZM1,4A1,1,0,0,1,0,3V1A1,1,0,1,1,2,1V3A1,1,0,0,1,1,4Z" transform="translate(3 11)" fill="#5c78ff"/></g></svg>