<svg xmlns="http://www.w3.org/2000/svg" width="32" height="32" viewBox="0 0 32 32"><g transform="translate(-329 -297.5)"><g transform="translate(329 297.5)"><g transform="translate(4 5.333)"><path d="M21.333,0H2.667A2.666,2.666,0,0,0,0,2.667v4A2.666,2.666,0,0,0,2.667,9.333H21.333A2.666,2.666,0,0,0,24,6.667v-4A2.666,2.666,0,0,0,21.333,0Z" transform="translate(0 13.333)" fill="#051d3f"/><path d="M16.427,10.429h0a6.667,6.667,0,0,0-10.281-.013l-2.053-1.7a9.333,9.333,0,0,1,14.391.02l-2.056,1.7Zm4.092-3.421h0A12,12,0,0,0,2.05,7L0,5.292a14.667,14.667,0,0,1,22.57.013l-2.051,1.7Z" transform="translate(0.72 0)" fill="#7c42ff"/></g></g></g></svg>