<svg xmlns="http://www.w3.org/2000/svg" width="24" height="24" viewBox="0 0 24 24"><g transform="translate(5 4)"><path d="M11.317,16H3.683a1.933,1.933,0,0,1-1.872-1.89L1.283,4H.625A.647.647,0,0,1,0,3.334a.648.648,0,0,1,.625-.667H3.887l.205-.877A2.244,2.244,0,0,1,6.242,0H8.759a2.244,2.244,0,0,1,2.149,1.79l.205.877h3.262A.648.648,0,0,1,15,3.334.647.647,0,0,1,14.375,4h-.659L13.189,14.11A1.933,1.933,0,0,1,11.317,16ZM2.536,4l.522,10.037a.645.645,0,0,0,.625.63h7.634a.644.644,0,0,0,.625-.63L12.464,4H2.536ZM6.242,1.333a.977.977,0,0,0-.936.78l-.13.553H9.824l-.13-.553a.977.977,0,0,0-.936-.78Z" fill="#d70d5a"/><path d="M5,7.333V.667a.626.626,0,1,1,1.249,0V7.333A.626.626,0,1,1,5,7.333Zm-2.5,0V.667A.647.647,0,0,1,3.125,0,.647.647,0,0,1,3.75.667V7.333A.647.647,0,0,1,3.125,8,.647.647,0,0,1,2.5,7.333Zm-2.5,0V.667A.647.647,0,0,1,.625,0,.647.647,0,0,1,1.25.667V7.333A.647.647,0,0,1,.625,8,.647.647,0,0,1,0,7.333Z" transform="translate(4.375 5.333)" fill="#d70d5a"/></g></svg>