<svg xmlns="http://www.w3.org/2000/svg" width="16" height="16" viewBox="0 0 16 16"><path d="M5.5,0h-4A1.5,1.5,0,0,0,0,1.5v4A1.5,1.5,0,0,0,1.5,7h4A1.5,1.5,0,0,0,7,5.5v-4A1.5,1.5,0,0,0,5.5,0Z" fill="#fff"/><path d="M14.5,16h-4A1.5,1.5,0,0,1,9,14.5v-4A1.5,1.5,0,0,1,10.5,9h4A1.5,1.5,0,0,1,16,10.5v4A1.5,1.5,0,0,1,14.5,16Zm-9,0h-4A1.5,1.5,0,0,1,0,14.5v-4A1.5,1.5,0,0,1,1.5,9h4A1.5,1.5,0,0,1,7,10.5v4A1.5,1.5,0,0,1,5.5,16Zm9-9h-4A1.5,1.5,0,0,1,9,5.5v-4A1.5,1.5,0,0,1,10.5,0h4A1.5,1.5,0,0,1,16,1.5v4A1.5,1.5,0,0,1,14.5,7Z" fill="#7c42ff"/></svg>