<svg xmlns="http://www.w3.org/2000/svg" width="24" height="24" viewBox="0 0 24 24"><path d="M8.795,1.861A10.769,10.769,0,0,0,8.637,0H0V3.526H4.946a4.238,4.238,0,0,1-1.83,2.782V8.6H6.066A8.943,8.943,0,0,0,8.795,1.861Z" transform="translate(12.188 10.54)" fill="#4285f4"/><path d="M8.182,7.4a8.765,8.765,0,0,0,6.07-2.21L11.3,2.9a5.478,5.478,0,0,1-3.116.875A5.481,5.481,0,0,1,3.045,0H0V2.359A9.158,9.158,0,0,0,8.182,7.4Z" transform="translate(4.006 13.945)" fill="#34a853"/><path d="M4.016,5.864a5.485,5.485,0,0,1,0-3.506V0H.974a9.164,9.164,0,0,0,0,8.223Z" transform="translate(3.032 8.08)" fill="#fbbc04"/><path d="M8.182,3.624A4.976,4.976,0,0,1,11.695,5h0l2.614-2.614A8.8,8.8,0,0,0,8.182,0,9.155,9.155,0,0,0,0,5.047L3.041,7.406A5.477,5.477,0,0,1,8.182,3.624Z" transform="translate(4.006 3.033)" fill="#ea4335"/></svg>