<svg xmlns="http://www.w3.org/2000/svg" width="32" height="32" viewBox="0 0 32 32"><g transform="translate(-369 -330.5)"><g transform="translate(369 330.5)"><g transform="translate(2.625 1.313)"><path d="M8.387,2.094A13.764,13.764,0,1,1,.511,11.049l2.527.709A11.142,11.142,0,1,0,10.17,4.22l1.563,1.863a.656.656,0,0,1-.466,1.077L4.88,7.521A.657.657,0,0,1,4.2,6.714L5.685.5A.656.656,0,0,1,6.826.235Z" fill="#7c42ff"/><path d="M1.224,0h.111a.656.656,0,0,1,.653.591l.6,5.972L6.848,9a.656.656,0,0,1,.331.57v.275a.5.5,0,0,1-.633.484L.484,8.674A.656.656,0,0,1,0,7.991L.57.606A.656.656,0,0,1,1.224,0Z" transform="translate(11.852 8.216)" fill="#051d3f"/></g></g></g></svg>