<svg xmlns="http://www.w3.org/2000/svg" width="32" height="32" viewBox="0 0 32 32"><g transform="translate(-135 -309.5)"><g transform="translate(135 309.5)"><g transform="translate(5.389 2.695)"><path d="M20.358,23.344H2.545A2.626,2.626,0,0,1,0,20.65V8.69a2.749,2.749,0,0,1,1.217-2.3L10.788.2a1.215,1.215,0,0,1,1.328,0L21.684,6.39A2.746,2.746,0,0,1,22.9,8.69V20.65A2.626,2.626,0,0,1,20.358,23.344ZM13.472,9.872a1.281,1.281,0,0,0-1.347,1.2v8.382a1.281,1.281,0,0,0,1.347,1.2h5.39a1.281,1.281,0,0,0,1.347-1.2V11.07a1.281,1.281,0,0,0-1.347-1.2Z" transform="translate(0 0)" fill="#7c42ff"/><path d="M16.5,16.84H10.441a1.011,1.011,0,0,1,0-2.021H16.5a1.011,1.011,0,0,1,0,2.021ZM5.388,4.041H1.347A1.349,1.349,0,0,1,0,2.694V1.347A1.349,1.349,0,0,1,1.347,0H5.388A1.349,1.349,0,0,1,6.737,1.347V2.694A1.349,1.349,0,0,1,5.388,4.041Z" transform="translate(2.694 9.872)" fill="#051d3f"/></g></g></g></svg>