<svg xmlns="http://www.w3.org/2000/svg" xmlns:xlink="http://www.w3.org/1999/xlink" width="88.061" height="38.959" viewBox="0 0 88.061 38.959"><defs><linearGradient id="a" y1="0.5" x2="1" y2="0.5" gradientUnits="objectBoundingBox"><stop offset="0" stop-color="#986eff"/><stop offset="1" stop-color="#6d5cff"/></linearGradient></defs><path d="M38.926,25.735,7.942,1.1a4.892,4.892,0,0,0-6.874.785c-.011.016-.027.032-.038.049a4.927,4.927,0,0,0,.877,6.909.076.076,0,0,1,.022.018L39.093,37.289a8.135,8.135,0,0,0,9.875,0l37.147-28.4a4.96,4.96,0,0,0,.926-6.95c-.005-.009-.016-.018-.022-.028A4.934,4.934,0,0,0,80.1,1.036a.307.307,0,0,0-.043.037L49.044,25.735A8.125,8.125,0,0,1,38.926,25.735Z" transform="translate(0)" fill="url(#a)"/></svg>