<svg xmlns="http://www.w3.org/2000/svg" width="87.634" height="73.03" viewBox="0 0 87.634 73.03"><g transform="translate(-513.876 -247.33)"><path d="M48.888,71.261,83.7,43.55l.856-.678a8.124,8.124,0,0,0,1.327-11.414,8.244,8.244,0,0,0-1.311-1.315L48.888,1.766a8.13,8.13,0,0,0-10.118,0l-35.7,28.4a8.12,8.12,0,0,0-1.3,11.417,7.906,7.906,0,0,0,1.295,1.3l.845.674L38.77,71.265A8.127,8.127,0,0,0,48.888,71.261Z" transform="translate(513.876 247.33)" fill="#051d3f"/><path d="M479.834,264.321a7.741,7.741,0,0,0-15.481,0v9.026a1.291,1.291,0,1,0,2.581,0v-9.026a5.16,5.16,0,0,1,10.321,0v14.21a7.71,7.71,0,0,0-5.16-1.977H452.741a7.71,7.71,0,0,0-5.16,1.977v-14.21a5.16,5.16,0,0,1,10.321,0v9.026a1.291,1.291,0,1,0,2.581,0v-9.026a7.741,7.741,0,0,0-15.482,0v19.352c0,.1,0,.208.007.311s-.007.207-.007.311h.026a7.74,7.74,0,0,0,15.456-.622v-1.232a1.291,1.291,0,1,0-2.581,0v1.232a5.181,5.181,0,1,1-5.16-4.538h19.352a4.859,4.859,0,1,1-5.16,4.538v-1.232a1.291,1.291,0,1,0-2.581,0v1.232a7.74,7.74,0,0,0,15.456.622h.026c0-.1,0-.208-.007-.311s.007-.207.007-.311V264.321Z" transform="translate(95 10)" fill="#e3dfff"/></g></svg>