<svg xmlns="http://www.w3.org/2000/svg" width="23.25" height="23.25" viewBox="0 0 23.25 23.25"><path d="M20.178,8.719h.165a2.906,2.906,0,0,1,0,5.813H20.26a.643.643,0,0,0-.461,1.078l.058.058a2.907,2.907,0,1,1-4.111,4.112l-.05-.051a.643.643,0,0,0-1.086.451v.165a2.906,2.906,0,0,1-5.813,0,.676.676,0,0,0-.469-.664.627.627,0,0,0-.687.118l-.057.058a2.908,2.908,0,0,1-4.113-4.111l.05-.051a.642.642,0,0,0-.45-1.086H2.906a2.906,2.906,0,0,1,0-5.813.677.677,0,0,0,.664-.469.627.627,0,0,0-.119-.687l-.058-.058A2.907,2.907,0,1,1,7.5,3.471l.05.051a.631.631,0,0,0,.695.126l.139-.029a.63.63,0,0,0,.329-.547V2.906a2.906,2.906,0,0,1,5.813,0V2.99a.634.634,0,0,0,.391.58.627.627,0,0,0,.687-.118l.057-.058A2.908,2.908,0,0,1,19.779,7.5l-.05.051a.63.63,0,0,0-.127.695l.03.139A.627.627,0,0,0,20.178,8.719Z" fill="#5c78ff"/><path d="M3.875,7.75A3.875,3.875,0,1,0,0,3.875,3.875,3.875,0,0,0,3.875,7.75Z" transform="translate(7.75 7.75)" fill="#48465b"/></svg>