<svg xmlns="http://www.w3.org/2000/svg" width="30.667" height="30.667" viewBox="0 0 30.667 30.667"><g transform="translate(-176 -397.5)"><g transform="translate(176 397.5)"><g transform="translate(0 3.833)"><path d="M16.611,14.055a3.833,3.833,0,1,1,3.834-3.833A3.837,3.837,0,0,1,16.611,14.055Zm-11.5-3.833a5.111,5.111,0,1,1,5.112-5.112A5.117,5.117,0,0,1,5.111,10.222Z" transform="translate(6.388)" fill="#7c42ff"/><path d="M29.971,10.222H25.043a12.665,12.665,0,0,0-2.554-7.666,9.236,9.236,0,0,1,5.62,1.723,6.806,6.806,0,0,1,2.554,5.176.786.786,0,0,1-.17.578A.686.686,0,0,1,29.971,10.222Zm-7.934,0H.929a1.033,1.033,0,0,1-.588-.38A1.065,1.065,0,0,1,0,9.2,9.254,9.254,0,0,1,3.662,2.313,12.911,12.911,0,0,1,11.478,0a13.288,13.288,0,0,1,7.913,2.249A8.955,8.955,0,0,1,23,9.2a1.027,1.027,0,0,1-.225.76A.963.963,0,0,1,22.037,10.222Z" transform="translate(0 12.778)" fill="#051d3f"/></g></g></g></svg>