<svg xmlns="http://www.w3.org/2000/svg" width="13" height="13" viewBox="0 0 13 13"><path d="M6.5,13a.93.93,0,0,1-.929-.928v-.929a.928.928,0,1,1,1.857,0v.929A.929.929,0,0,1,6.5,13Zm3.827-1.745a.923.923,0,0,1-.657-.272l-.656-.656a.929.929,0,1,1,1.313-1.313l.656.656a.928.928,0,0,1-.657,1.585Zm-7.621,0A.929.929,0,0,1,2.05,9.67l.656-.656a.929.929,0,1,1,1.313,1.313l-.656.656A.923.923,0,0,1,2.706,11.255Zm9.365-3.827h-.929a.928.928,0,1,1,0-1.857h.929a.928.928,0,0,1,0,1.857Zm-10.215,0H.929a.928.928,0,1,1,0-1.857h.928a.928.928,0,1,1,0,1.857ZM9.67,4.291a.929.929,0,0,1-.656-1.585L9.67,2.05a.929.929,0,1,1,1.313,1.313l-.656.656A.923.923,0,0,1,9.67,4.291Zm-6.308,0a.923.923,0,0,1-.657-.272L2.05,3.363A.929.929,0,1,1,3.363,2.05l.656.656a.928.928,0,0,1-.657,1.585ZM6.5,2.786a.93.93,0,0,1-.929-.929V.929a.928.928,0,1,1,1.857,0v.928A.93.93,0,0,1,6.5,2.786Z" fill="#051d3f"/></svg>