<svg xmlns="http://www.w3.org/2000/svg" xmlns:xlink="http://www.w3.org/1999/xlink" width="130" height="130" viewBox="0 0 130 130"><defs><linearGradient id="a" y1="0.5" x2="1" y2="0.5" gradientUnits="objectBoundingBox"><stop offset="0" stop-color="#986eff"/><stop offset="1" stop-color="#6d5cff"/></linearGradient></defs><g transform="translate(-123 -341)"><g transform="translate(123 341)"><g transform="translate(21.667 16.25)"><path d="M38.926,25.735,7.942,1.1a4.892,4.892,0,0,0-6.874.785c-.011.016-.027.032-.038.049a4.927,4.927,0,0,0,.877,6.909.076.076,0,0,1,.022.018L39.093,37.289a8.135,8.135,0,0,0,9.875,0l37.147-28.4a4.96,4.96,0,0,0,.926-6.95c-.005-.009-.016-.018-.022-.028A4.934,4.934,0,0,0,80.1,1.036a.307.307,0,0,0-.043.037L49.044,25.735A8.125,8.125,0,0,1,38.926,25.735Z" transform="translate(0 59.605)" fill="url(#a)"/><path d="M48.888,71.261,83.7,43.55l.856-.678a8.124,8.124,0,0,0,1.327-11.414,8.244,8.244,0,0,0-1.311-1.315L48.888,1.766a8.13,8.13,0,0,0-10.118,0l-35.7,28.4a8.12,8.12,0,0,0-1.3,11.417,7.906,7.906,0,0,0,1.295,1.3l.845.674L38.77,71.265A8.127,8.127,0,0,0,48.888,71.261Z" transform="translate(0.21 0)" fill="#051d3f"/></g></g><g transform="translate(-369 109.92)"><path d="M479.834,264.321a7.741,7.741,0,0,0-15.481,0v9.026a1.291,1.291,0,1,0,2.581,0v-9.026a5.16,5.16,0,0,1,10.321,0v14.21a7.71,7.71,0,0,0-5.16-1.977H452.741a7.71,7.71,0,0,0-5.16,1.977v-14.21a5.16,5.16,0,0,1,10.321,0v9.026a1.291,1.291,0,1,0,2.581,0v-9.026a7.741,7.741,0,0,0-15.482,0v19.352c0,.1,0,.208.007.311s-.007.207-.007.311h.026a7.74,7.74,0,0,0,15.456-.622v-1.232a1.291,1.291,0,1,0-2.581,0v1.232a5.181,5.181,0,1,1-5.16-4.538h19.352a4.859,4.859,0,1,1-5.16,4.538v-1.232a1.291,1.291,0,1,0-2.581,0v1.232a7.74,7.74,0,0,0,15.456.622h.026c0-.1,0-.208-.007-.311s.007-.207.007-.311V264.321Z" transform="translate(95 10)" fill="#e3dfff"/></g></g></svg>