<?xml version="1.0" encoding="utf-8"?>
<svg width="327" height="70" viewBox="0 0 69 70" xmlns="http://www.w3.org/2000/svg">
  <defs>
    <clipPath id="a">
      <rect width="327" height="70" fill="#fff"/>
    </clipPath>
    <linearGradient id="b" x1="1" y1="0.5" x2="0" y2="0.5" gradientUnits="objectBoundingBox">
      <stop offset="0" stop-color="#986eff"/>
      <stop offset="1" stop-color="#6d5cff"/>
    </linearGradient>
  </defs>
  <g clip-path="url(#a)">
    <path d="M120.008,18.1C181.21,6.015,188.629,35.417,192,54.482c5.286,29.871-17.069,147.607-150.373,38.313C-15.652,45.832-7.5,10.87,28.074,1.579,62.689-7.459,82.126,25.576,120.008,18.1Z" transform="translate(-125.091 -24.482)" fill="url(#b)"/>
  </g>
  <g transform="translate(16 15)">
    <path d="M12.409,29.19a2.507,2.507,0,0,1-1.615-.591,43.739,43.739,0,0,1-8.1-8.59A13.762,13.762,0,0,1,0,12.5,12.467,12.467,0,0,1,3.438,3.438,12.467,12.467,0,0,1,12.5,0a12.258,12.258,0,0,1,9.062,3.906A12.753,12.753,0,0,1,25,12.5c0,1.935-.915,4.263-2.72,6.92a57.3,57.3,0,0,1-8.162,9.1A2.494,2.494,0,0,1,12.409,29.19ZM12.5,6.666a4.167,4.167,0,1,0,4.167,4.167A4.172,4.172,0,0,0,12.5,6.666Z" transform="translate(8.333 5)" fill="#fff"/>
  </g>
</svg>